<?xml version="1.0" standalone="no"?><!DOCTYPE svg PUBLIC "-//W3C//DTD SVG 1.1//EN" "http://www.w3.org/Graphics/SVG/1.1/DTD/svg11.dtd"><svg t="1524227069178" class="icon" style="" viewBox="0 0 1028 1024" version="1.1" xmlns="http://www.w3.org/2000/svg" p-id="4994" xmlns:xlink="http://www.w3.org/1999/xlink" width="200.78125" height="200"><defs><style type="text/css"></style></defs><path d="M992 512c-6.4 0-19.2 0-25.6-6.4L544 76.8c-19.2-19.2-44.8-19.2-57.6 0L57.6 505.6c-12.8 12.8-32 12.8-44.8 0C0 492.8 0 473.6 6.4 460.8l428.8-428.8c38.4-38.4 108.8-38.4 153.6 0l428.8 428.8c12.8 12.8 12.8 32 0 44.8C1011.2 512 998.4 512 992 512z" p-id="4995" fill="#1296db"></path><path d="M780.8 1024 249.6 1024c-83.2 0-153.6-64-153.6-147.2L96 403.2c0-19.2 12.8-32 32-32s32 12.8 32 32l0 473.6c0 44.8 38.4 83.2 89.6 83.2l531.2 0c51.2 0 89.6-38.4 89.6-83.2L870.4 403.2c0-19.2 12.8-32 32-32s32 12.8 32 32l0 473.6C934.4 960 864 1024 780.8 1024z" p-id="4996" fill="#1296db"></path><path d="M640 992c-19.2 0-32-12.8-32-32l0-185.6c0-51.2-38.4-96-89.6-96s-89.6 44.8-89.6 96L428.8 960c0 19.2-12.8 32-32 32S358.4 979.2 358.4 960l0-185.6c0-89.6 70.4-160 153.6-160s153.6 70.4 153.6 160L665.6 960C672 979.2 659.2 992 640 992z" p-id="4997" fill="#1296db"></path></svg>